<svg width="19" height="19" viewBox="0 0 19 19" fill="none" xmlns="http://www.w3.org/2000/svg">
<path d="M5.31377 15.4581L5.96713 15.8398C7.06896 16.4824 8.32213 16.8198 9.59765 16.8171C11.0255 16.8171 12.4213 16.3937 13.6086 15.6004C14.7958 14.8071 15.7212 13.6796 16.2676 12.3604C16.814 11.0412 16.957 9.58962 16.6784 8.18918C16.3999 6.78873 15.7123 5.50233 14.7026 4.49267C13.6929 3.483 12.4066 2.79541 11.0061 2.51684C9.60565 2.23827 8.15405 2.38125 6.83486 2.92767C5.51566 3.4741 4.38813 4.39944 3.59484 5.58669C2.80155 6.77393 2.37813 8.16975 2.37813 9.59763C2.37813 10.8935 2.71835 12.1362 3.35638 13.229L3.73721 13.8824L3.14791 16.0492L5.31377 15.4581ZM0.576864 18.622L1.79696 14.1387C0.993013 12.7606 0.570634 11.1931 0.573254 9.59763C0.573254 4.61346 4.61347 0.573242 9.59765 0.573242C14.5818 0.573242 18.622 4.61346 18.622 9.59763C18.622 14.5818 14.5818 18.622 9.59765 18.622C8.00284 18.6246 6.43609 18.2025 5.05838 17.3992L0.576864 18.622ZM6.34074 5.36339C6.46167 5.35436 6.5835 5.35436 6.70443 5.35978C6.75316 5.36339 6.80189 5.3688 6.85062 5.37422C6.99411 5.39046 7.15204 5.478 7.20528 5.59893C7.47421 6.20897 7.73591 6.82354 7.9886 7.4399C8.04455 7.57707 8.01116 7.75305 7.90467 7.92451C7.83143 8.04045 7.75221 8.15251 7.66733 8.26022C7.56535 8.39107 7.34606 8.63112 7.34606 8.63112C7.34606 8.63112 7.25672 8.73761 7.29101 8.87027C7.30365 8.9208 7.34516 8.9939 7.38306 9.05527L7.4363 9.141C7.66733 9.52634 7.97777 9.9171 8.35679 10.2853C8.46509 10.39 8.57067 10.4974 8.68438 10.5975C9.10672 10.9702 9.58501 11.2744 10.1012 11.5L10.1057 11.5018C10.1824 11.5352 10.2212 11.5532 10.3331 11.601C10.3891 11.6245 10.4468 11.6453 10.5055 11.6606C10.5661 11.676 10.63 11.6731 10.6889 11.6523C10.7479 11.6314 10.7993 11.5934 10.8367 11.5433C11.4901 10.7519 11.5496 10.7004 11.555 10.7004V10.7022C11.6004 10.6599 11.6544 10.6278 11.7132 10.608C11.772 10.5882 11.8344 10.5813 11.8962 10.5876C11.9503 10.5912 12.0054 10.6011 12.0559 10.6237C12.5351 10.843 13.3193 11.185 13.3193 11.185L13.8445 11.4206C13.933 11.463 14.0133 11.5631 14.016 11.6597C14.0196 11.7202 14.025 11.8176 14.0043 11.9963C13.9754 12.23 13.905 12.5107 13.8346 12.6578C13.7864 12.7582 13.7224 12.8502 13.6451 12.9303C13.554 13.026 13.4543 13.113 13.3473 13.1902C13.3102 13.2181 13.2726 13.2452 13.2345 13.2715C13.1222 13.3427 13.0069 13.4089 12.8888 13.47C12.6565 13.5934 12.3999 13.6643 12.1371 13.6776C11.9702 13.6866 11.8032 13.6992 11.6354 13.6902C11.6281 13.6902 11.1228 13.6117 11.1228 13.6117C9.83973 13.2742 8.65314 12.642 7.6574 11.7653C7.45345 11.5857 7.26484 11.3926 7.07172 11.2004C6.26855 10.4017 5.66211 9.53988 5.29391 8.72588C5.10546 8.32636 5.00366 7.89148 4.99521 7.44983C4.99149 6.90191 5.17059 6.3684 5.50418 5.93373C5.57006 5.8489 5.63233 5.76046 5.73972 5.65849C5.85433 5.55019 5.92652 5.49244 6.00504 5.45273C6.10942 5.40042 6.2233 5.36972 6.33984 5.36249L6.34074 5.36339Z" fill="#E7E7E5"/>
</svg>
