<svg width="20" height="14" viewBox="0 0 20 14" fill="none" xmlns="http://www.w3.org/2000/svg">
<path fill-rule="evenodd" clip-rule="evenodd" d="M8.01899 9.26564V4.13757C9.84803 4.99419 11.2646 5.8217 12.94 6.71387C11.5582 7.47663 9.84803 8.33247 8.01899 9.26564ZM18.2122 1.58714C17.8967 1.17341 17.359 0.851357 16.7865 0.744734C15.1038 0.426687 4.606 0.425782 2.9242 0.744734C2.46511 0.830394 2.0563 1.03745 1.70513 1.35914C0.225432 2.72609 0.689098 10.0566 1.04576 11.244C1.19574 11.758 1.38963 12.1287 1.63381 12.372C1.9484 12.6937 2.37914 12.9152 2.87389 13.0145C4.25939 13.2998 11.3972 13.4593 16.7572 13.0574C17.2511 12.9717 17.6882 12.7431 18.033 12.4077C19.4011 11.0462 19.3078 3.30403 18.2122 1.58714Z" fill="#E7E7E5"/>
</svg>
