<svg width="19" height="18" viewBox="0 0 19 18" fill="none" xmlns="http://www.w3.org/2000/svg">
<path fill-rule="evenodd" clip-rule="evenodd" d="M0.5 9C0.5 5.40486 0.5 3.60729 1.35669 2.31255C1.73925 1.73439 2.23439 1.23925 2.81255 0.856692C4.10729 0 5.90486 0 9.5 0C13.0951 0 14.8927 0 16.1874 0.856692C16.7656 1.23925 17.2608 1.73439 17.6433 2.31255C18.5 3.60729 18.5 5.40486 18.5 9C18.5 12.5951 18.5 14.3927 17.6433 15.6874C17.2608 16.2656 16.7656 16.7608 16.1874 17.1433C14.8927 18 13.0951 18 9.5 18C5.90486 18 4.10729 18 2.81255 17.1433C2.23439 16.7608 1.73925 16.2656 1.35669 15.6874C0.5 14.3927 0.5 12.5951 0.5 9ZM14.1593 9.00023C14.1593 11.5735 12.0732 13.6596 9.49984 13.6596C6.92652 13.6596 4.84043 11.5735 4.84043 9.00023C4.84043 6.42691 6.92652 4.34082 9.49984 4.34082C12.0732 4.34082 14.1593 6.42691 14.1593 9.00023ZM9.49984 12.0832C11.2025 12.0832 12.5828 10.7029 12.5828 9.00023C12.5828 7.29753 11.2025 5.91722 9.49984 5.91722C7.79714 5.91722 6.41684 7.29753 6.41684 9.00023C6.41684 10.7029 7.79714 12.0832 9.49984 12.0832ZM14.3433 5.20155C14.9479 5.20155 15.4381 4.71138 15.4381 4.10673C15.4381 3.50207 14.9479 3.0119 14.3433 3.0119C13.7386 3.0119 13.2485 3.50207 13.2485 4.10673C13.2485 4.71138 13.7386 5.20155 14.3433 5.20155Z" fill="url(#paint0_linear_16_32)"/>
<defs>
<linearGradient id="paint0_linear_16_32" x1="9.5" y1="0" x2="9.5" y2="18" gradientUnits="userSpaceOnUse">
<stop stop-color="#B88400"/>
<stop offset="1" stop-color="#FFB800" stop-opacity="0.5"/>
</linearGradient>
</defs>
</svg>
